# Blender 3.6.5
# www.blender.org
mtllib regulus_crystal.mtl
o Cube
v -0.999849 0.000000 0.000000
v 0.000000 0.000000 0.999849
v -0.000000 0.000000 -0.999849
v 0.999849 0.000000 -0.000000
v 0.499925 0.000000 0.499924
v -0.499924 0.000000 0.499925
v 0.499924 0.000000 -0.499925
v -0.499925 0.000000 -0.499924
v 0.000000 1.000000 -0.000000
v 0.000000 -1.000000 -0.000000
vn -0.5774 0.5773 0.5774
vn 0.5774 0.5773 0.5774
vn -0.5774 0.5773 -0.5774
vn 0.5774 0.5773 -0.5774
vn 0.5774 -0.5773 0.5774
vn 0.5774 -0.5773 -0.5774
vn -0.5774 -0.5773 -0.5774
vn -0.5774 -0.5773 0.5774
vt 0.500000 0.500000
vt 0.500000 1.000000
vt 0.000076 0.500000
vt 0.250038 0.500000
vt 0.749962 0.500000
vt 0.500000 0.500000
vt 0.999924 0.500000
vt 0.500000 0.000000
s 0
f 2/1/1 9/2/1 1/3/1 6/4/1
f 4/1/2 9/2/2 2/3/2 5/4/2
f 8/5/3 1/6/3 9/2/3 3/7/3
f 7/5/4 3/6/4 9/2/4 4/7/4
f 10/8/5 4/1/5 5/4/5 2/3/5
f 7/5/6 4/7/6 10/8/6 3/6/6
f 1/6/7 8/5/7 3/7/7 10/8/7
f 2/1/8 6/4/8 1/3/8 10/8/8
