# Blender 3.6.5
# www.blender.org
mtllib regulus_player_model2.mtl
o Cube
v -2.250000 13.500002 1.125001
v -2.250000 6.750000 1.125001
v -2.250001 13.500002 -1.124999
v -2.250001 6.750000 -1.124999
v 2.250001 13.500002 1.124999
v 2.250001 6.750000 1.124999
v 2.250000 13.500002 -1.125001
v 2.250000 6.750000 -1.125001
v 2.250000 13.500001 -2.250001
v 2.250000 18.000000 -2.250001
v 2.250001 13.500001 2.250000
v 2.250001 18.000000 2.250000
v -2.250001 13.500001 -2.250000
v -2.250001 18.000000 -2.250000
v -2.250000 13.500001 2.250001
v -2.250000 18.000000 2.250001
v -2.250000 6.750000 -1.124999
v -2.250000 13.500002 -1.124999
v -2.250000 6.750000 1.125001
v -2.250000 13.500002 1.125001
v -4.050001 6.750000 -1.124999
v -4.050001 13.500002 -1.124999
v -4.050000 6.750000 1.125001
v -4.050000 13.500002 1.125001
v -0.000000 -0.000001 -1.125000
v -0.000000 6.750001 -1.125000
v 0.000001 -0.000001 1.125000
v 0.000001 6.750001 1.125000
v -2.250000 -0.000001 -1.124999
v -2.250000 6.750001 -1.124999
v -2.250000 -0.000001 1.125001
v -2.250000 6.750001 1.125001
v 2.250000 -0.000001 -1.125001
v 2.250000 6.750001 -1.125001
v 2.250000 -0.000001 1.124999
v 2.250000 6.750001 1.124999
v -0.000001 -0.000001 -1.125000
v -0.000001 6.750001 -1.125000
v 0.000000 -0.000001 1.125000
v 0.000000 6.750001 1.125000
v 4.050000 6.750000 -1.125001
v 4.050000 13.500002 -1.125001
v 4.050001 6.750000 1.124999
v 4.050001 13.500002 1.124999
v 2.249999 6.750000 -1.125001
v 2.249999 13.500002 -1.125001
v 2.250000 6.750000 1.124999
v 2.250000 13.500002 1.124999
vn -0.0000 1.0000 -0.0000
vn -0.0000 -0.0000 -1.0000
vn 1.0000 -0.0000 -0.0000
vn -0.0000 -1.0000 -0.0000
vn -1.0000 -0.0000 -0.0000
vn -0.0000 -0.0000 1.0000
vt 0.400074 0.708293
vt 0.266740 0.708293
vt 0.266740 0.624960
vt 0.400074 0.624960
vt 0.600090 0.583345
vt 0.600090 0.833345
vt 0.466757 0.833345
vt 0.466757 0.583345
vt 0.300074 0.590238
vt 0.300074 0.840238
vt 0.366740 0.840238
vt 0.366740 0.590238
vt 0.200119 0.583314
vt 0.200119 0.833314
vt 0.066786 0.833314
vt 0.066786 0.583314
vt 0.333361 0.833329
vt 0.333361 0.999996
vt 0.200028 0.999996
vt 0.200028 0.833329
vt 0.066715 0.833314
vt 0.066715 0.999981
vt 0.200049 0.999981
vt 0.200049 0.833314
vt 0.333382 0.833283
vt 0.333382 0.999950
vt 0.466716 0.999950
vt 0.466716 0.833283
vt 0.600090 0.833262
vt 0.600090 0.999929
vt 0.466757 0.999929
vt 0.466757 0.833262
vt 0.600074 0.999960
vt 0.733407 0.999960
vt 0.733407 0.833293
vt 0.600074 0.833293
vt 0.400150 0.583341
vt 0.266816 0.583341
vt 0.266816 0.416674
vt 0.400150 0.416674
vt 0.066701 0.583266
vt 0.066701 0.833266
vt 0.013368 0.833266
vt 0.013368 0.583266
vt 0.320215 0.583520
vt 0.320215 0.833520
vt 0.253549 0.833520
vt 0.253549 0.583520
vt 0.653435 0.583248
vt 0.653435 0.833248
vt 0.600102 0.833248
vt 0.600102 0.583248
vt 0.680126 0.666562
vt 0.733459 0.666562
vt 0.733459 0.583228
vt 0.680126 0.583228
vt 0.320165 0.416780
vt 0.266831 0.416780
vt 0.266831 0.333446
vt 0.320165 0.333446
vt 0.300074 0.340238
vt 0.300074 0.590238
vt 0.366740 0.590238
vt 0.366740 0.340238
vt 0.133570 0.333325
vt 0.133570 0.583325
vt 0.066903 0.583325
vt 0.066903 0.333325
vt 0.266705 0.333330
vt 0.266705 0.583330
vt 0.200038 0.583330
vt 0.200038 0.333330
vt 0.599987 0.333314
vt 0.599987 0.583314
vt 0.533320 0.583314
vt 0.533320 0.333314
vt 0.680080 0.466641
vt 0.746747 0.466641
vt 0.746747 0.383308
vt 0.680080 0.383308
vt 0.333407 0.708293
vt 0.333407 0.624960
vt 0.000145 0.333344
vt 0.000145 0.583344
vt 0.066812 0.583344
vt 0.066812 0.333344
vt 0.200082 0.333366
vt 0.200082 0.583366
vt 0.133415 0.583366
vt 0.133415 0.333366
vt 0.533359 0.333299
vt 0.533359 0.583299
vt 0.466692 0.583299
vt 0.466692 0.333299
vt 0.680126 0.566709
vt 0.746792 0.566709
vt 0.746792 0.483375
vt 0.680126 0.483375
vt 0.346792 0.583337
vt 0.346792 0.833337
vt 0.413459 0.833337
vt 0.413459 0.583337
vt 0.253407 0.583272
vt 0.253407 0.833272
vt 0.200074 0.833272
vt 0.200074 0.583272
vt 0.466778 0.583365
vt 0.466778 0.833365
vt 0.413444 0.833365
vt 0.413444 0.583365
vt 0.680119 0.766787
vt 0.733453 0.766787
vt 0.733453 0.683454
vt 0.680119 0.683454
vt 0.400181 0.416650
vt 0.346848 0.416650
vt 0.346848 0.333316
vt 0.400181 0.333316
s 0
usemtl Material
f 1/1/1 5/2/1 7/3/1 3/4/1
f 4/5/2 3/6/2 7/7/2 8/8/2
f 8/9/3 7/10/3 5/11/3 6/12/3
f 6/2/4 2/1/4 4/4/4 8/3/4
f 2/12/5 1/11/5 3/10/5 4/9/5
f 6/13/6 5/14/6 1/15/6 2/16/6
f 9/17/3 10/18/3 12/19/3 11/20/3
f 11/21/6 12/22/6 16/23/6 15/24/6
f 15/25/5 16/26/5 14/27/5 13/28/5
f 13/29/2 14/30/2 10/31/2 9/32/2
f 11/33/4 15/34/4 13/35/4 9/36/4
f 16/37/1 12/38/1 10/39/1 14/40/1
f 17/9/3 18/10/3 20/11/3 19/12/3
f 19/41/6 20/42/6 24/43/6 23/44/6
f 23/45/5 24/46/5 22/47/5 21/48/5
f 21/49/2 22/50/2 18/51/2 17/52/2
f 19/53/4 23/54/4 21/55/4 17/56/4
f 24/57/1 20/58/1 18/59/1 22/60/1
f 25/61/3 26/62/3 28/63/3 27/64/3
f 27/65/6 28/66/6 32/67/6 31/68/6
f 31/69/5 32/70/5 30/71/5 29/72/5
f 29/73/2 30/74/2 26/75/2 25/76/2
f 27/77/4 31/78/4 29/79/4 25/80/4
f 32/1/1 28/81/1 26/82/1 30/4/1
f 33/83/3 34/84/3 36/85/3 35/86/3
f 35/87/6 36/88/6 40/89/6 39/90/6
f 39/64/5 40/63/5 38/62/5 37/61/5
f 37/91/2 38/92/2 34/93/2 33/94/2
f 35/95/4 39/96/4 37/97/4 33/98/4
f 40/81/1 36/2/1 34/3/1 38/82/1
f 41/99/3 42/100/3 44/101/3 43/102/3
f 43/103/6 44/104/6 48/105/6 47/106/6
f 47/12/5 48/11/5 46/10/5 45/9/5
f 45/107/2 46/108/2 42/109/2 41/110/2
f 43/111/4 47/112/4 45/113/4 41/114/4
f 48/115/1 44/116/1 42/117/1 46/118/1
