# Blender 3.6.5
# www.blender.org
mtllib regulus_player_model1.mtl
o Cube
v -2.000000 13.539286 -1.120000
v -2.000000 9.039287 -1.120000
v 2.000000 13.539286 -1.120000
v 2.000000 9.039287 -1.120000
v -2.000000 13.539286 1.120000
v -2.000000 9.039287 1.120000
v 2.000000 13.539286 1.120000
v 2.000000 9.039287 1.120000
v -2.000000 9.039287 -1.120000
v 2.000000 9.039287 1.120000
v 2.000000 9.039287 -1.120000
v -2.000000 9.039287 1.120000
v 2.000000 13.539286 1.120000
v -2.000000 13.539286 -1.120000
v 2.000000 13.539286 -1.120000
v -2.000000 13.539286 1.120000
v 0.000000 9.039287 1.120000
v 0.000000 13.539286 -1.120000
v 0.000000 13.539286 1.120000
v 0.000000 9.039287 -1.120000
v 0.000000 9.039287 -1.120000
v 0.000000 9.039287 1.120000
v 0.000000 13.539286 -1.120000
v 0.000000 13.539286 1.120000
v 0.000000 0.039287 1.120000
v 0.000000 9.039287 1.120000
v -2.000000 0.039287 1.120000
v -2.000000 9.039287 1.120000
v 0.000000 0.039287 -1.120000
v 0.000000 9.039287 -1.120000
v -2.000000 0.039287 -1.120000
v -2.000000 9.039287 -1.120000
v 2.000000 0.039287 1.120000
v 2.000000 9.039287 1.120000
v 0.000000 0.039287 1.120000
v 0.000000 9.039287 1.120000
v 2.000000 0.039287 -1.120000
v 2.000000 9.039287 -1.120000
v 0.000000 0.039287 -1.120000
v 0.000000 9.039287 -1.120000
v 4.000000 5.889287 1.120000
v 4.000000 13.539286 1.120000
v 2.000000 5.889287 1.120000
v 2.000000 13.539286 1.120000
v 4.000000 5.889287 -1.120000
v 4.000000 13.539286 -1.120000
v 2.000000 5.889287 -1.120000
v 2.000000 13.539286 -1.120000
v -2.000000 5.889287 1.120000
v -2.000000 13.539286 1.120000
v -4.000000 5.889287 1.120000
v -4.000000 13.539286 1.120000
v -2.000000 5.889287 -1.120000
v -2.000000 13.539286 -1.120000
v -4.000000 5.889287 -1.120000
v -4.000000 13.539286 -1.120000
v -2.000000 13.499999 2.000000
v -2.000000 17.500000 2.000000
v -2.000000 13.499999 -2.000000
v -2.000000 17.500000 -2.000000
v 2.000000 13.499999 2.000000
v 2.000000 17.500000 2.000000
v 2.000000 13.499999 -2.000000
v 2.000000 17.500000 -2.000000
vn -0.0000 1.0000 -0.0000
vn -0.0000 -1.0000 -0.0000
vn -1.0000 -0.0000 -0.0000
vn -0.0000 -0.0000 -1.0000
vn -0.0000 -0.0000 1.0000
vn 1.0000 -0.0000 -0.0000
vt 0.958998 0.673008
vt 0.910722 0.673008
vt 0.910722 0.586801
vt 0.958998 0.586801
vt 0.593481 0.414388
vt 0.996929 0.112664
vt 0.948653 0.112664
vt 0.948653 0.026457
vt 0.996929 0.026457
vt 0.862446 0.608353
vt 0.862446 0.414388
vt 0.910722 0.414388
vt 0.910722 0.608353
vt 0.905550 0.220422
vt 0.905550 0.026457
vt 0.948653 0.220422
vt 0.905550 0.414388
vt 0.905550 0.220422
vt 0.948653 0.220422
vt 0.948653 0.414388
vt 0.862446 0.802319
vt 0.910722 0.802319
vt 0.862446 0.414388
vt 0.862446 0.220422
vt 0.862446 0.220422
vt 0.862446 0.026457
vt 0.996929 0.198870
vt 0.948653 0.198870
vt 0.958998 0.759215
vt 0.910722 0.759215
vt 0.776239 0.414388
vt 0.776239 0.026457
vt 0.819343 0.026457
vt 0.819343 0.414388
vt 0.496929 0.414388
vt 0.496929 0.026457
vt 0.545205 0.026457
vt 0.545205 0.414388
vt 0.862446 0.414388
vt 0.593481 0.026457
vt 0.626239 0.916543
vt 0.626239 1.013094
vt 0.583136 1.013094
vt 0.583136 0.916543
vt 0.669343 0.916543
vt 0.669343 1.013094
vt 0.733136 0.414388
vt 0.733136 0.026457
vt 0.641757 0.026457
vt 0.641757 0.414388
vt 0.690032 0.414388
vt 0.690032 0.026457
vt 0.712446 0.916543
vt 0.712446 1.013094
vt 0.755550 0.916543
vt 0.755550 1.013094
vt 0.819343 0.744129
vt 0.819343 0.414388
vt 0.862446 0.414388
vt 0.862446 0.744129
vt 0.545205 0.744129
vt 0.545205 0.414388
vt 0.593481 0.414388
vt 0.593481 0.744129
vt 0.733136 0.744129
vt 0.733136 0.414388
vt 0.776239 0.414388
vt 0.776239 0.744129
vt 0.641757 0.744129
vt 0.641757 0.414388
vt 0.690032 0.414388
vt 0.690032 0.744129
vt 0.798653 0.916543
vt 0.798653 1.013094
vt 0.755550 0.916543
vt 0.798653 1.013094
vt 0.798653 0.916543
vt 0.841757 0.916543
vt 0.841757 1.013094
vt 0.496929 0.744129
vt 0.496929 0.414388
vt 0.540032 0.916543
vt 0.540032 1.013094
vt 0.496929 1.013094
vt 0.496929 0.916543
vt 0.444427 0.779842
vt 0.444427 1.001516
vt 0.333590 1.001516
vt 0.333590 0.779842
vt 0.333776 0.777783
vt 0.333776 1.000128
vt 0.222604 1.000128
vt 0.222604 0.777783
vt 0.222923 0.778333
vt 0.222923 0.999777
vt 0.112201 0.999777
vt 0.112201 0.778333
vt 0.111015 0.778432
vt 0.111015 1.000148
vt 0.000157 1.000148
vt 0.000157 0.778432
vt 0.948653 0.974732
vt 0.862446 0.974732
vt 0.948653 0.802319
vt 0.111287 0.998566
vt 0.001045 0.998566
vt 0.001045 0.778082
vt 0.111287 0.778082
s 0
usemtl Material
f 18/1/1 19/2/1 7/3/1 3/4/1
f 15/5/1 3/5/1 7/5/1 13/5/1
f 24/5/1 19/5/1 5/5/1 16/5/1
f 17/6/2 20/7/2 4/8/2 8/9/2
f 23/5/1 18/5/1 3/5/1 15/5/1
f 16/5/1 5/5/1 1/5/1 14/5/1
f 6/5/1 12/5/1 9/5/1 2/5/1
f 20/5/1 21/5/1 11/5/1 4/5/1
f 17/5/1 22/5/1 12/5/1 6/5/1
f 4/5/1 11/5/1 10/5/1 8/5/1
f 12/10/3 16/11/3 14/12/3 9/13/3
f 21/14/4 23/15/4 15/8/4 11/16/4
f 22/17/5 24/18/5 16/19/5 12/20/5
f 11/21/6 15/10/6 13/13/6 10/22/6
f 10/23/5 13/24/5 24/18/5 22/17/5
f 9/25/4 14/26/4 23/15/4 21/14/4
f 8/5/1 10/5/1 22/5/1 17/5/1
f 2/5/1 9/5/1 21/5/1 20/5/1
f 14/5/1 1/5/1 18/5/1 23/5/1
f 6/27/2 2/28/2 20/7/2 17/6/2
f 13/5/1 7/5/1 19/5/1 24/5/1
f 1/29/1 5/30/1 19/2/1 18/1/1
f 25/31/5 26/32/5 28/33/5 27/34/5
f 27/35/3 28/36/3 32/37/3 31/38/3
f 31/34/4 32/33/4 30/26/4 29/39/4
f 29/38/6 30/37/6 26/40/6 25/5/6
f 27/41/2 31/42/2 29/43/2 25/44/2
f 32/42/1 28/41/1 26/45/1 30/46/1
f 33/47/5 34/48/5 36/32/5 35/31/5
f 35/5/3 36/40/3 40/49/3 39/50/3
f 39/51/4 40/52/4 38/48/4 37/47/4
f 37/50/6 38/49/6 34/52/6 33/51/6
f 35/53/2 39/54/2 37/46/2 33/45/2
f 40/54/1 36/53/1 34/55/1 38/56/1
f 41/57/5 42/58/5 44/59/5 43/60/5
f 43/61/3 44/62/3 48/63/3 47/64/3
f 47/65/4 48/66/4 46/67/4 45/68/4
f 45/69/6 46/70/6 42/71/6 41/72/6
f 43/73/2 47/74/2 45/56/2 41/75/2
f 48/76/1 44/77/1 42/78/1 46/79/1
f 49/72/5 50/71/5 52/66/5 51/65/5
f 51/80/3 52/81/3 56/62/3 55/61/3
f 55/68/4 56/67/4 54/58/4 53/57/4
f 53/64/6 54/63/6 50/70/6 49/69/6
f 51/82/2 55/83/2 53/84/2 49/85/2
f 56/83/1 52/82/1 50/44/1 54/43/1
f 57/86/3 58/87/3 60/88/3 59/89/3
f 59/90/4 60/91/4 64/92/4 63/93/4
f 63/94/6 64/95/6 62/96/6 61/97/6
f 61/98/5 62/99/5 58/100/5 57/101/5
f 59/102/2 63/103/2 61/21/2 57/104/2
f 64/105/1 60/106/1 58/107/1 62/108/1
