# Blender 3.6.5
# www.blender.org
mtllib regulus_boss.mtl
o Cube
v 5.000000 7.592356 -7.434247
v 5.000000 -0.960521 -2.252714
v 5.000000 12.773890 1.118630
v 5.000000 4.221013 6.300164
v -5.000000 7.592356 -7.434247
v -5.000000 -0.960521 -2.252714
v -5.000000 12.773890 1.118630
v -5.000000 4.221013 6.300164
v 6.802087 -0.478660 -19.658897
v 6.802087 -10.775242 -10.767669
v 6.802087 8.412569 -9.362314
v 6.802087 -1.884013 -0.471087
v -6.802087 -0.478660 -19.658897
v -6.802087 -10.775242 -10.767669
v -6.802087 8.412569 -9.362314
v -6.802087 -1.884013 -0.471087
v 3.300413 11.233469 1.610410
v 3.300413 4.870900 3.367856
v 3.300413 12.990914 7.972980
v 3.300413 6.628345 9.730425
v -3.300413 11.233469 1.610410
v -3.300413 4.870900 3.367856
v -3.300413 12.990914 7.972980
v -3.300413 6.628345 9.730425
v 5.052621 15.835926 6.843734
v 5.052621 5.851410 5.286379
v 5.052621 14.278570 16.828249
v 5.052621 4.294055 15.270893
v -5.052621 15.835926 6.843734
v -5.052621 5.851410 5.286379
v -5.052621 14.278570 16.828249
v -5.052621 4.294055 15.270893
v -4.022676 1.528026 -1.403710
v -4.022676 4.216044 -1.362553
v -4.022676 1.583353 -3.403286
v -4.022676 4.271372 -3.362129
v 4.022676 1.528026 -1.403710
v 4.022676 4.216044 -1.362553
v 4.022676 1.583353 -3.403286
v 4.022676 4.271372 -3.362129
v -6.775830 1.583353 -3.403286
v -6.775830 1.528026 -1.403710
v -7.331333 4.216044 -1.362553
v -7.331333 4.271372 -3.362129
v 7.331333 4.271372 -3.362129
v 6.775830 1.583353 -3.403286
v 6.775830 1.528026 -1.403710
v 7.331333 4.216044 -1.362553
v -8.639015 -1.901496 -3.456643
v -8.639015 -1.956823 -1.457067
v -9.347268 0.731196 -1.415910
v -9.347268 0.786523 -3.415487
v 9.347268 0.786523 -3.415487
v 8.639015 -1.901496 -3.456643
v 8.639015 -1.956823 -1.457067
v 9.347268 0.731196 -1.415910
v -10.764032 -7.961167 -3.549424
v -10.764032 -8.016495 -1.549848
v -11.646500 -5.328475 -1.508691
v -11.646500 -5.273148 -3.508267
v 11.646500 -5.273148 -3.508267
v 10.764032 -7.961167 -3.549424
v 10.764032 -8.016495 -1.549848
v 11.646500 -5.328475 -1.508691
v -4.022676 3.653356 2.441520
v -4.022676 6.079139 1.282766
v -4.022676 2.813508 0.626025
v -4.022676 5.239292 -0.532730
v 4.022676 3.653356 2.441520
v 4.022676 6.079139 1.282766
v 4.022676 2.813508 0.626025
v 4.022676 5.239292 -0.532730
v -6.775830 2.813508 0.626025
v -6.775830 3.653356 2.441520
v -7.331333 6.079139 1.282766
v -7.331333 5.239292 -0.532730
v 7.331333 5.239292 -0.532730
v 6.775830 2.813508 0.626025
v 6.775830 3.653356 2.441520
v 7.331333 6.079139 1.282766
v -8.639015 -0.331371 2.128277
v -8.639015 0.508477 3.943772
v -9.347268 2.934261 2.785018
v -9.347268 2.094414 0.969523
v 9.347268 2.094414 0.969523
v 8.639015 -0.331371 2.128277
v 8.639015 0.508477 3.943772
v 9.347268 2.934261 2.785018
v -10.764032 -5.799879 4.740486
v -10.764032 -4.960032 6.555982
v -11.646500 -2.534247 5.397227
v -11.646500 -3.374094 3.581732
v 11.646500 -3.374094 3.581732
v 10.764032 -5.799879 4.740486
v 10.764032 -4.960032 6.555982
v 11.646500 -2.534247 5.397227
v -4.022676 5.636861 5.906832
v -4.022676 7.320211 3.810773
v -4.022676 4.092810 4.635112
v -4.022676 5.776160 2.539052
v 4.022676 5.636861 5.906832
v 4.022676 7.320211 3.810773
v 4.022676 4.092810 4.635112
v 4.022676 5.776160 2.539052
v -6.775830 4.092810 4.635112
v -6.775830 5.636861 5.906832
v -7.331333 7.320211 3.810773
v -7.331333 5.776160 2.539052
v 7.331333 5.776160 2.539052
v 6.775830 4.092810 4.635112
v 6.775830 5.636861 5.906832
v 7.331333 7.320211 3.810773
v -8.639015 1.910449 7.352524
v -8.639015 3.454500 8.624245
v -9.347268 5.137851 6.528184
v -9.347268 3.593801 5.256463
v 9.347268 3.593801 5.256463
v 8.639015 1.910449 7.352524
v 8.639015 3.454500 8.624245
v 9.347268 5.137851 6.528184
v -10.764032 -1.884373 12.077726
v -10.764032 -0.340323 13.349448
v -11.646500 1.343029 11.253386
v -11.646500 -0.201021 9.981666
v 11.646500 -0.201021 9.981666
v 10.764032 -1.884373 12.077726
v 10.764032 -0.340323 13.349448
v 11.646500 1.343029 11.253386
v 6.802087 -10.775242 -10.767669
v -6.802087 -10.775242 -10.767669
v 6.802087 -0.478660 -19.658897
v -6.802087 -0.478660 -19.658897
v -3.067911 15.133247 7.733719
v -3.067911 13.758644 7.698739
v -3.067911 15.107304 9.733418
v -3.067911 13.732700 9.698438
v 2.878994 15.133247 7.733719
v 2.878994 13.758644 7.698739
v 2.878994 15.107304 9.733418
v 2.878994 13.732700 9.698438
v -5.102968 15.107304 9.733418
v -5.102968 15.133247 7.733719
v -5.513580 13.758644 7.698739
v -5.513580 13.732700 9.698438
v 5.324664 13.732700 9.698438
v 4.914051 15.107304 9.733418
v 4.914051 15.133247 7.733719
v 5.324664 13.758644 7.698739
v -6.156235 16.889393 9.778768
v -6.156235 16.915335 7.779070
v -7.003705 15.540732 7.744089
v -7.003705 15.514789 9.743787
v 6.814789 15.514789 9.743787
v 5.967319 16.889393 9.778768
v 5.967319 16.915335 7.779070
v 6.814789 15.540732 7.744089
v -6.696174 19.988194 9.857626
v -6.696174 20.014137 7.857927
v -7.619130 18.639534 7.822947
v -7.619130 18.613590 9.822645
v 7.430213 18.613590 9.822645
v 6.507257 19.988194 9.857626
v 6.507257 20.014137 7.857927
v 7.430213 18.639534 7.822947
vn -0.0000 0.8553 -0.5182
vn -0.0000 0.5182 0.8553
vn -1.0000 -0.0000 -0.0000
vn -0.0000 -0.8553 0.5182
vn 1.0000 -0.0000 -0.0000
vn -0.0000 -0.5182 -0.8553
vn -0.0000 0.7569 -0.6536
vn -0.0000 0.6536 0.7569
vn -0.0000 -0.7569 0.6536
vn -0.0000 1.0000 -0.0000
vn -0.0000 0.9639 -0.2662
vn -0.0000 0.2662 0.9639
vn -0.0000 -0.9639 0.2662
vn -0.0000 -0.2662 -0.9639
vn -0.0000 0.9881 0.1541
vn -0.0000 -0.1541 0.9881
vn -0.0000 -0.9881 -0.1541
vn -0.0000 0.1541 -0.9881
vn -0.0000 -0.0153 0.9999
vn -0.0000 0.0153 -0.9999
vn -0.0000 -0.9996 -0.0277
vn -0.0000 0.9996 0.0277
vn -0.8656 0.5005 0.0138
vn 0.9350 0.3546 0.0098
vn 0.8819 -0.4713 -0.0130
vn -0.8819 -0.4713 -0.0130
vn 0.8656 0.5005 0.0138
vn -0.9501 -0.3118 -0.0086
vn 0.9501 -0.3118 -0.0086
vn -0.9350 0.3546 0.0098
vn 0.9437 -0.3308 -0.0092
vn -0.9437 -0.3308 -0.0092
vn -0.0000 0.4310 0.9023
vn -0.0000 -0.4310 -0.9023
vn -0.0000 -0.9076 0.4199
vn -0.0000 0.9076 -0.4199
vn -0.8656 0.4545 -0.2102
vn 0.9350 0.3220 -0.1489
vn 0.8819 -0.4279 0.1980
vn -0.8819 -0.4279 0.1980
vn 0.8656 0.4545 -0.2102
vn -0.9501 -0.2831 0.1310
vn 0.9501 -0.2831 0.1310
vn -0.9350 0.3220 -0.1489
vn 0.9437 -0.3003 0.1389
vn -0.9437 -0.3003 0.1389
vn -0.0000 0.7797 0.6262
vn -0.0000 -0.7797 -0.6262
vn -0.0000 -0.6358 0.7719
vn -0.0000 0.6358 -0.7719
vn -0.8656 0.3183 -0.3865
vn 0.9350 0.2255 -0.2738
vn 0.8819 -0.2997 0.3639
vn -0.8819 -0.2997 0.3639
vn 0.8656 0.3183 -0.3865
vn -0.9501 -0.1983 0.2408
vn 0.9501 -0.1983 0.2408
vn -0.9350 0.2255 -0.2738
vn 0.9437 -0.2104 0.2554
vn -0.9437 -0.2104 0.2554
vn -0.0000 -0.6536 -0.7569
vn -0.0000 0.0254 -0.9997
vn -0.0000 -0.0254 0.9997
vn -0.0000 0.9999 0.0130
vn -0.0000 -0.9999 -0.0130
vn -0.7672 -0.6413 -0.0083
vn 0.9809 -0.1947 -0.0025
vn 0.8609 0.5087 0.0066
vn -0.8609 0.5087 0.0066
vn 0.7672 -0.6413 -0.0083
vn -0.8303 0.5573 0.0072
vn 0.8303 0.5573 0.0072
vn -0.9809 -0.1947 -0.0025
vn 0.9852 0.1716 0.0022
vn -0.9852 0.1716 0.0022
vt 0.963841 0.611470
vt 0.963841 0.767912
vt 0.856799 0.767912
vt 0.856799 0.611470
vt 0.627836 0.193199
vt 0.734879 0.193199
vt 0.734879 0.349641
vt 0.627836 0.349641
vt 0.799820 0.800552
vt 0.799820 0.956994
vt 0.924974 0.956994
vt 0.924974 0.800552
vt 1.000000 0.903223
vt 1.000000 0.746782
vt 0.892958 0.746782
vt 0.892958 0.903223
vt 0.946918 0.364400
vt 0.946918 0.520842
vt 0.821764 0.520842
vt 0.821764 0.364400
vt 0.457575 0.359647
vt 0.564618 0.359647
vt 0.564618 0.203205
vt 0.457575 0.203205
vt 0.697132 0.304975
vt 0.526871 0.304975
vt 0.526871 0.143894
vt 0.697132 0.143894
vt 0.823355 0.108168
vt 0.952221 0.108168
vt 0.952221 0.320994
vt 0.823355 0.320994
vt 0.791421 0.521890
vt 0.791421 0.734716
vt 0.961682 0.734716
vt 0.961682 0.521890
vt 0.060700 0.265623
vt 0.230961 0.265623
vt 0.230961 0.104541
vt 0.060700 0.104541
vt 0.518610 0.091632
vt 0.518610 0.304458
vt 0.348349 0.304458
vt 0.348349 0.091632
vt 0.853643 0.357378
vt 0.853643 0.218282
vt 0.997614 0.577226
vt 0.997614 0.680491
vt 0.917985 0.680491
vt 0.917985 0.577226
vt 0.893918 0.103265
vt 0.973548 0.103265
vt 0.973548 0.206529
vt 0.893918 0.206529
vt 0.734879 0.296464
vt 0.817490 0.296464
vt 0.817490 0.193200
vt 0.734879 0.193200
vt 0.593118 0.192109
vt 0.593118 0.088844
vt 0.513489 0.088844
vt 0.513489 0.192109
vt 0.893918 -0.000000
vt 0.976530 -0.000000
vt 0.976530 0.103265
vt 0.893918 0.103265
vt 0.893918 0.309794
vt 0.973548 0.309794
vt 0.973548 0.206529
vt 0.893918 0.206529
vt 0.394960 0.420901
vt 0.394960 0.578989
vt 0.270000 0.578989
vt 0.270000 0.420901
vt 0.198201 0.836985
vt 0.198201 0.993185
vt 0.071731 0.993185
vt 0.071731 0.836985
vt 0.336011 0.835932
vt 0.336011 0.994020
vt 0.462482 0.994020
vt 0.462482 0.835932
vt 0.728997 0.997798
vt 0.728997 0.839710
vt 0.604037 0.839710
vt 0.604037 0.997798
vt 0.319658 0.837731
vt 0.319658 0.995819
vt 0.193188 0.995819
vt 0.193188 0.837731
vt 0.465625 0.991421
vt 0.590585 0.991421
vt 0.590585 0.833333
vt 0.465625 0.833333
vt 0.473973 0.598990
vt 0.507614 0.598990
vt 0.507614 0.650751
vt 0.473973 0.642060
vt 0.627067 0.598990
vt 0.660709 0.598990
vt 0.660709 0.473127
vt 0.627067 0.473127
vt 0.627067 0.642060
vt 0.660709 0.650751
vt 0.473973 0.473127
vt 0.507614 0.473127
vt 0.515850 0.526176
vt 0.515850 0.419187
vt 0.494578 0.419187
vt 0.494578 0.526176
vt 0.153094 0.416161
vt 0.153094 0.542024
vt 0.128069 0.542024
vt 0.128069 0.416161
vt 0.533957 0.669404
vt 0.558990 0.669791
vt 0.558990 0.615267
vt 0.533957 0.614880
vt 0.627067 0.430056
vt 0.660709 0.421365
vt 0.617094 0.389828
vt 0.583453 0.400908
vt 0.128069 0.364400
vt 0.153094 0.364400
vt 0.153094 0.593785
vt 0.128069 0.593785
vt 0.494578 0.562788
vt 0.515850 0.562788
vt 0.473973 0.430056
vt 0.507614 0.421365
vt 0.515850 0.382574
vt 0.494578 0.382574
vt 0.541256 0.353858
vt 0.507614 0.367664
vt 0.153095 0.731038
vt 0.128061 0.730652
vt 0.128061 0.635842
vt 0.153094 0.636229
vt 0.558990 0.627734
vt 0.533957 0.627347
vt 0.533957 0.572823
vt 0.558990 0.573210
vt 0.430358 0.400908
vt 0.464000 0.389828
vt 0.128061 0.743119
vt 0.153094 0.743506
vt 0.153094 0.688982
vt 0.128061 0.688595
vt 0.583453 0.671208
vt 0.617094 0.682288
vt 0.464000 0.682288
vt 0.430358 0.671208
vt 0.153094 0.785562
vt 0.128061 0.785176
vt 0.533957 0.478014
vt 0.533957 0.520070
vt 0.558990 0.520457
vt 0.558990 0.478400
vt 0.153095 0.594172
vt 0.128061 0.593785
vt 0.354520 0.367664
vt 0.388161 0.353858
vt 0.507614 0.704453
vt 0.541256 0.718258
vt 0.388161 0.718258
vt 0.354520 0.704453
vt 0.620935 0.615525
vt 0.651295 0.615525
vt 0.651295 0.667286
vt 0.620935 0.658596
vt 0.482776 0.615525
vt 0.513136 0.615525
vt 0.513136 0.489662
vt 0.482776 0.489662
vt 0.482776 0.658596
vt 0.513136 0.667286
vt 0.620935 0.489662
vt 0.651295 0.489662
vt 0.215209 0.582319
vt 0.215209 0.456457
vt 0.192487 0.456457
vt 0.192487 0.582319
vt 0.548760 0.627000
vt 0.548760 0.733990
vt 0.529446 0.733990
vt 0.529446 0.627000
vt 0.483891 0.669404
vt 0.508924 0.669791
vt 0.508924 0.615267
vt 0.483891 0.614880
vt 0.482776 0.446591
vt 0.513136 0.437901
vt 0.473776 0.406363
vt 0.443417 0.417443
vt 0.529446 0.583001
vt 0.548760 0.583001
vt 0.548760 0.777989
vt 0.529446 0.777989
vt 0.192487 0.625390
vt 0.215209 0.625390
vt 0.620935 0.446591
vt 0.651295 0.437901
vt 0.215209 0.413386
vt 0.192487 0.413386
vt 0.405336 0.370394
vt 0.374976 0.384199
vt 0.533957 0.615267
vt 0.508924 0.614880
vt 0.508924 0.520070
vt 0.533957 0.520457
vt 0.508924 0.627734
vt 0.483891 0.627347
vt 0.483891 0.572823
vt 0.508924 0.573210
vt 0.581576 0.417443
vt 0.611935 0.406363
vt 0.508924 0.627347
vt 0.533957 0.627734
vt 0.533957 0.573210
vt 0.508924 0.572823
vt 0.443417 0.687744
vt 0.473776 0.698824
vt 0.611935 0.698824
vt 0.581576 0.687744
vt 0.533957 0.669791
vt 0.508924 0.669404
vt 0.483891 0.478014
vt 0.483891 0.520070
vt 0.508924 0.520457
vt 0.508924 0.478400
vt 0.533957 0.478400
vt 0.508924 0.478014
vt 0.513135 0.384199
vt 0.543495 0.370394
vt 0.374976 0.720988
vt 0.405336 0.734793
vt 0.543495 0.734793
vt 0.513135 0.720988
vt 0.472278 0.590947
vt 0.494578 0.590947
vt 0.494578 0.634947
vt 0.472278 0.627560
vt 0.093147 0.609531
vt 0.119380 0.609531
vt 0.119380 0.483668
vt 0.093147 0.483668
vt 0.093147 0.652602
vt 0.119380 0.661293
vt 0.472278 0.483958
vt 0.494578 0.483958
vt 0.535165 0.526176
vt 0.535165 0.419187
vt 0.551591 0.419187
vt 0.551591 0.526176
vt 0.512461 0.627000
vt 0.512461 0.733990
vt 0.528887 0.733990
vt 0.528887 0.627000
vt 0.452221 0.791225
vt 0.477254 0.791612
vt 0.477254 0.737088
vt 0.452221 0.736701
vt 0.093147 0.440598
vt 0.119380 0.431907
vt 0.085370 0.400369
vt 0.059138 0.411450
vt 0.528887 0.583001
vt 0.512461 0.583001
vt 0.512461 0.777989
vt 0.528887 0.777989
vt 0.551591 0.562788
vt 0.535165 0.562788
vt 0.472278 0.447346
vt 0.494578 0.439959
vt 0.535165 0.382574
vt 0.551591 0.382574
vt 0.026233 0.364400
vt 0.000000 0.378205
vt 0.502287 0.737088
vt 0.477254 0.736701
vt 0.477254 0.641891
vt 0.502287 0.642278
vt 0.477254 0.749555
vt 0.452221 0.749168
vt 0.452221 0.694644
vt 0.477254 0.695031
vt 0.443369 0.422569
vt 0.465668 0.413150
vt 0.477254 0.749168
vt 0.502287 0.749555
vt 0.502287 0.695031
vt 0.477254 0.694644
vt 0.059138 0.681750
vt 0.085370 0.692830
vt 0.465668 0.661755
vt 0.443369 0.652337
vt 0.502287 0.791612
vt 0.477254 0.791225
vt 0.452221 0.599835
vt 0.452221 0.641891
vt 0.477254 0.642278
vt 0.477254 0.600221
vt 0.502287 0.600221
vt 0.477254 0.599835
vt 0.393099 0.394310
vt 0.415398 0.382574
vt 0.000000 0.714994
vt 0.026233 0.728800
vt 0.415398 0.692331
vt 0.393099 0.680596
vt 0.818891 0.498481
vt 0.947756 0.498481
vt 0.947756 0.285655
vt 0.818891 0.285655
vt 0.683382 0.218282
vt 0.683382 0.357378
vt 0.460535 0.722608
vt 0.445911 0.722608
vt 0.445911 0.755131
vt 0.460535 0.749671
vt 0.563384 0.722608
vt 0.548760 0.722608
vt 0.548760 0.643524
vt 0.563384 0.643524
vt 0.563384 0.749671
vt 0.548760 0.755131
vt 0.460535 0.643524
vt 0.445911 0.643524
vt 0.279565 0.789449
vt 0.279565 0.696414
vt 0.304592 0.696414
vt 0.304592 0.789449
vt 0.558990 0.516274
vt 0.558990 0.609308
vt 0.584017 0.609308
vt 0.584017 0.516274
vt 0.192489 0.625390
vt 0.167462 0.625780
vt 0.167462 0.653669
vt 0.192489 0.653279
vt 0.563384 0.616461
vt 0.548760 0.611001
vt 0.567719 0.591185
vt 0.582343 0.602455
vt 0.584017 0.478014
vt 0.558990 0.478014
vt 0.558990 0.647569
vt 0.584017 0.647569
vt 0.304592 0.821286
vt 0.279565 0.821286
vt 0.460535 0.616461
vt 0.445911 0.611001
vt 0.279565 0.664578
vt 0.304592 0.664578
vt 0.600686 0.583001
vt 0.615310 0.595275
vt 0.515850 0.586826
vt 0.537125 0.586495
vt 0.537125 0.627717
vt 0.515850 0.628048
vt 0.167462 0.647292
vt 0.192489 0.646902
vt 0.192489 0.674790
vt 0.167462 0.675180
vt 0.479494 0.602455
vt 0.464870 0.591185
vt 0.537125 0.581074
vt 0.515850 0.581406
vt 0.515850 0.605112
vt 0.537125 0.604780
vt 0.582343 0.763677
vt 0.567719 0.774947
vt 0.464870 0.774947
vt 0.479494 0.763677
vt 0.515850 0.563120
vt 0.537125 0.562788
vt 0.192489 0.723284
vt 0.192489 0.701773
vt 0.167462 0.702163
vt 0.167462 0.723674
vt 0.515850 0.646334
vt 0.537125 0.646002
vt 0.512461 0.595275
vt 0.497837 0.583001
vt 0.615310 0.770857
vt 0.600686 0.783131
vt 0.497837 0.783131
vt 0.512461 0.770857
s 0
usemtl Material
f 1/1/1 5/2/1 7/3/1 3/4/1
f 4/5/2 3/6/2 7/7/2 8/8/2
f 8/9/3 7/10/3 5/11/3 6/12/3
f 6/13/4 2/14/4 4/15/4 8/16/4
f 2/17/5 1/18/5 3/19/5 4/20/5
f 6/21/6 5/22/6 1/23/6 2/24/6
f 9/25/7 13/26/7 15/27/7 11/28/7
f 12/29/8 11/30/8 15/31/8 16/32/8
f 16/33/3 15/34/3 13/35/3 14/36/3
f 14/37/9 10/38/9 12/39/9 16/40/9
f 10/41/5 9/42/5 11/43/5 12/44/5
f 9/45/10 10/46/10 129/46/10 131/45/10
f 17/47/11 21/48/11 23/49/11 19/50/11
f 20/51/12 19/52/12 23/53/12 24/54/12
f 24/55/3 23/56/3 21/57/3 22/58/3
f 22/59/13 18/60/13 20/61/13 24/62/13
f 18/63/5 17/64/5 19/65/5 20/66/5
f 22/67/14 21/68/14 17/69/14 18/70/14
f 25/71/15 29/72/15 31/73/15 27/74/15
f 28/75/16 27/76/16 31/77/16 32/78/16
f 32/79/3 31/80/3 29/81/3 30/82/3
f 30/83/17 26/84/17 28/85/17 32/86/17
f 26/87/5 25/88/5 27/89/5 28/90/5
f 30/91/18 29/92/18 25/93/18 26/94/18
f 33/95/19 34/96/19 43/97/19 42/98/19
f 35/99/20 36/100/20 40/101/20 39/102/20
f 36/100/20 35/99/20 41/103/20 44/104/20
f 37/105/19 38/106/19 34/96/19 33/95/19
f 35/107/21 39/108/21 37/109/21 33/110/21
f 40/111/22 36/112/22 34/113/22 38/114/22
f 43/115/23 44/116/23 52/117/23 51/118/23
f 46/119/20 45/120/20 53/121/20 54/122/20
f 40/111/22 38/114/22 48/123/22 45/124/22
f 39/102/20 40/101/20 45/120/20 46/119/20
f 34/113/22 36/112/22 44/125/22 43/126/22
f 35/107/21 33/110/21 42/127/21 41/128/21
f 38/106/19 37/105/19 47/129/19 48/130/19
f 37/109/21 39/108/21 46/131/21 47/132/21
f 54/122/20 53/121/20 61/133/20 62/134/20
f 53/135/24 56/136/24 64/137/24 61/138/24
f 41/139/25 42/140/25 50/141/25 49/142/25
f 48/130/19 47/129/19 55/143/19 56/144/19
f 47/145/26 46/146/26 54/147/26 55/148/26
f 44/104/20 41/103/20 49/149/20 52/150/20
f 42/98/19 43/97/19 51/151/19 50/152/19
f 45/153/27 48/154/27 56/136/27 53/135/27
f 58/155/28 59/156/28 60/157/28 57/158/28
f 62/159/29 61/138/29 64/137/29 63/160/29
f 51/118/30 52/117/30 60/157/30 59/156/30
f 49/142/31 50/141/31 58/155/31 57/158/31
f 56/144/19 55/143/19 63/161/19 64/162/19
f 55/148/32 54/147/32 62/159/32 63/160/32
f 52/150/20 49/149/20 57/163/20 60/164/20
f 50/152/19 51/151/19 59/165/19 58/166/19
f 65/167/33 66/168/33 75/169/33 74/170/33
f 67/171/34 68/172/34 72/173/34 71/174/34
f 68/172/34 67/171/34 73/175/34 76/176/34
f 69/177/33 70/178/33 66/168/33 65/167/33
f 67/179/35 71/180/35 69/181/35 65/182/35
f 72/183/36 68/184/36 66/185/36 70/186/36
f 75/187/37 76/188/37 84/189/37 83/190/37
f 78/191/34 77/192/34 85/193/34 86/194/34
f 72/183/36 70/186/36 80/195/36 77/196/36
f 71/174/34 72/173/34 77/192/34 78/191/34
f 66/185/36 68/184/36 76/197/36 75/198/36
f 67/179/35 65/182/35 74/199/35 73/200/35
f 70/178/33 69/177/33 79/201/33 80/202/33
f 69/181/35 71/180/35 78/203/35 79/204/35
f 86/194/34 85/193/34 93/205/34 94/206/34
f 85/207/38 88/208/38 96/209/38 93/210/38
f 73/211/39 74/212/39 82/213/39 81/214/39
f 80/202/33 79/201/33 87/215/33 88/216/33
f 79/217/40 78/218/40 86/219/40 87/220/40
f 76/176/34 73/175/34 81/221/34 84/222/34
f 74/170/33 75/169/33 83/223/33 82/224/33
f 77/225/41 80/226/41 88/208/41 85/207/41
f 90/227/42 91/228/42 92/229/42 89/230/42
f 94/231/43 93/210/43 96/209/43 95/232/43
f 83/190/44 84/189/44 92/229/44 91/228/44
f 81/214/45 82/213/45 90/227/45 89/230/45
f 88/216/33 87/215/33 95/233/33 96/234/33
f 87/220/46 86/219/46 94/231/46 95/232/46
f 84/222/34 81/221/34 89/235/34 92/236/34
f 82/224/33 83/223/33 91/237/33 90/238/33
f 97/239/47 98/240/47 107/241/47 106/242/47
f 99/243/48 100/244/48 104/245/48 103/246/48
f 100/244/48 99/243/48 105/247/48 108/248/48
f 101/249/47 102/250/47 98/240/47 97/239/47
f 99/251/49 103/252/49 101/253/49 97/254/49
f 104/255/50 100/256/50 98/257/50 102/258/50
f 107/259/51 108/260/51 116/261/51 115/262/51
f 110/263/48 109/264/48 117/265/48 118/266/48
f 104/255/50 102/258/50 112/267/50 109/268/50
f 103/246/48 104/245/48 109/264/48 110/263/48
f 98/257/50 100/256/50 108/269/50 107/270/50
f 99/251/49 97/254/49 106/271/49 105/272/49
f 102/250/47 101/249/47 111/273/47 112/274/47
f 101/253/49 103/252/49 110/275/49 111/276/49
f 118/266/48 117/265/48 125/277/48 126/278/48
f 117/279/52 120/280/52 128/281/52 125/282/52
f 105/283/53 106/284/53 114/285/53 113/286/53
f 112/274/47 111/273/47 119/287/47 120/288/47
f 111/289/54 110/290/54 118/291/54 119/292/54
f 108/248/48 105/247/48 113/293/48 116/294/48
f 106/242/47 107/241/47 115/295/47 114/296/47
f 109/297/55 112/298/55 120/280/55 117/279/55
f 122/299/56 123/300/56 124/301/56 121/302/56
f 126/303/57 125/282/57 128/281/57 127/304/57
f 115/262/58 116/261/58 124/301/58 123/300/58
f 113/286/59 114/285/59 122/299/59 121/302/59
f 120/288/47 119/287/47 127/305/47 128/306/47
f 119/292/60 118/291/60 126/303/60 127/304/60
f 116/294/48 113/293/48 121/307/48 124/308/48
f 114/296/47 115/295/47 123/309/47 122/310/47
f 130/311/61 132/312/61 131/313/61 129/314/61
f 14/315/10 13/316/10 132/316/10 130/315/10
f 10/46/10 14/315/10 130/315/10 129/46/10
f 13/316/10 9/45/10 131/45/10 132/316/10
f 133/317/62 134/318/62 143/319/62 142/320/62
f 135/321/63 136/322/63 140/323/63 139/324/63
f 136/322/63 135/321/63 141/325/63 144/326/63
f 137/327/62 138/328/62 134/318/62 133/317/62
f 135/329/64 139/330/64 137/331/64 133/332/64
f 140/333/65 136/334/65 134/335/65 138/336/65
f 143/337/66 144/338/66 152/339/66 151/340/66
f 146/341/63 145/342/63 153/343/63 154/344/63
f 140/333/65 138/336/65 148/345/65 145/346/65
f 139/324/63 140/323/63 145/342/63 146/341/63
f 134/335/65 136/334/65 144/347/65 143/348/65
f 135/329/64 133/332/64 142/349/64 141/350/64
f 138/328/62 137/327/62 147/351/62 148/352/62
f 137/331/64 139/330/64 146/353/64 147/354/64
f 154/344/63 153/343/63 161/355/63 162/356/63
f 153/357/67 156/358/67 164/359/67 161/360/67
f 141/361/68 142/362/68 150/363/68 149/364/68
f 148/352/62 147/351/62 155/365/62 156/366/62
f 147/367/69 146/368/69 154/369/69 155/370/69
f 144/326/63 141/325/63 149/371/63 152/372/63
f 142/320/62 143/319/62 151/373/62 150/374/62
f 145/375/70 148/376/70 156/358/70 153/357/70
f 158/377/71 159/378/71 160/379/71 157/380/71
f 162/381/72 161/360/72 164/359/72 163/382/72
f 151/340/73 152/339/73 160/379/73 159/378/73
f 149/364/74 150/363/74 158/377/74 157/380/74
f 156/366/62 155/365/62 163/383/62 164/384/62
f 155/370/75 154/369/75 162/381/75 163/382/75
f 152/372/63 149/371/63 157/385/63 160/386/63
f 150/374/62 151/373/62 159/387/62 158/388/62
